<svg id="Capa_1" enable-background="new 0 0 512.002 512.002" height="512" viewBox="0 0 512.002 512.002" width="512" xmlns="http://www.w3.org/2000/svg"><g><g><g><path d="m237.961 357.695h18.04v-18.04c0-23.938-19.405-43.343-43.343-43.343h-14.04c-2.209 0-4 1.791-4 4v14.04c-.001 23.937 19.405 43.343 43.343 43.343z" fill="#b3e59f"/></g><g><path d="m274.041 402.695h-18.04v-18.04c0-23.938 19.405-43.343 43.343-43.343h14.04c2.209 0 4 1.791 4 4v14.04c0 23.937-19.405 43.343-43.343 43.343z" fill="#b3e59f"/></g><g><path d="m237.961 462.695h18.04v-18.04c0-23.938-19.405-43.343-43.343-43.343h-14.04c-2.209 0-4 1.791-4 4v14.04c-.001 23.937 19.405 43.343 43.343 43.343z" fill="#b3e59f"/></g><g><g><path d="m395.461 448.144h18.04v-18.04c0-23.938-19.405-43.343-43.343-43.343h-14.04c-2.209 0-4 1.791-4 4v14.04c-.001 23.937 19.405 43.343 43.343 43.343z" fill="#b3e59f"/></g><g><path d="m431.544 411.314h-18.043v-18.04c0-23.938 19.405-43.343 43.343-43.343h14.04c2.209 0 4 1.791 4 4v14.043c0 23.936-19.404 43.34-43.34 43.34z" fill="#b3e59f"/></g></g><g><g><path d="m116.541 448.144h-18.04v-18.04c0-23.938 19.405-43.343 43.343-43.343h14.04c2.209 0 4 1.791 4 4v14.04c0 23.937-19.405 43.343-43.343 43.343z" fill="#b3e59f"/></g><g><path d="m80.461 411.314h18.04v-18.04c0-23.938-19.405-43.343-43.343-43.343h-14.04c-2.209 0-4 1.791-4 4v14.04c-.001 23.937 19.405 43.343 43.343 43.343z" fill="#b3e59f"/></g></g><path d="m256.001 275.939c-19.33 0-35-15.67-35-35v-10h70v10c0 19.33-15.67 35-35 35z" fill="#8b818e"/><path d="m261.001 230.939v10c0 13.961-8.176 26.009-20 31.627 4.547 2.16 9.631 3.373 15 3.373 19.33 0 35-15.67 35-35v-10z" fill="#756e78"/><path d="m348.629 100.13c0-50.092-39.762-90.897-89.446-92.574-51.964-1.754-95.733 40.441-95.809 92.435-.044 30.186 14.351 57.009 36.663 73.95 15.335 11.644 24.566 29.603 24.566 48.858v.574h62.797v-.573c0-19.283 9.281-37.232 24.629-48.906 22.241-16.919 36.6-43.664 36.6-73.764z" fill="#f7e782"/><g fill="#f4dd46"><path d="m313.573 27.571c12.553 15.807 20.055 35.806 20.055 57.559 0 9.592-1.458 18.844-4.165 27.545-6.557 21.081-18.861 28.311-32.435 46.218-2.661 3.51-5.517 7.617-8.399 12.387-13.833 22.897-38.437 37.092-65.188 37.092h-.606c1.154 4.669 1.766 9.504 1.766 14.426v.574h62.799v-.573c0-19.283 9.281-37.232 24.629-48.906 22.241-16.918 36.6-43.663 36.6-73.763 0-29.397-13.699-55.591-35.056-72.559z"/><path d="m185.036 158.941c-.543-.412-1.077-.836-1.611-1.259 4.348 5.475 9.303 10.447 14.763 14.815-3.637-5.092-8.047-9.68-13.152-13.556z"/></g><path d="m291.001 245.939h-70c-8.284 0-15-6.716-15-15 0-8.284 6.716-15 15-15h70c8.284 0 15 6.716 15 15 0 8.284-6.716 15-15 15z" fill="#b3e59f"/><path d="m291.001 215.939h-30c8.284 0 15 6.716 15 15s-6.716 15-15 15h30c8.284 0 15-6.716 15-15s-6.716-15-15-15z" fill="#95d6a4"/></g><path d="m205.557 31.786c15.631-11.6 34.096-17.389 53.37-16.739 22.12.748 42.799 9.93 58.226 25.855 15.463 15.961 23.979 36.996 23.979 59.229 0 26.817-12.262 51.526-33.638 67.789-5.078 3.859-9.601 8.366-13.443 13.395-2.516 3.291-1.886 7.998 1.405 10.513 3.267 2.496 7.982 1.906 10.513-1.405 3.027-3.961 6.594-7.514 10.604-10.562 25.14-19.126 39.559-48.187 39.559-79.729 0-26.15-10.017-50.891-28.204-69.666-18.145-18.73-42.469-29.53-68.494-30.41-22.398-.76-44.696 6.238-62.815 19.686-3.326 2.468-4.021 7.166-1.553 10.492 2.467 3.326 7.165 4.021 10.491 1.552zm265.328 310.643h-14.04c-28.3-.008-51.316 23.328-50.844 51.651-9.199-9.154-21.872-14.821-35.844-14.821h-14.04c-6.341 0-11.5 5.159-11.5 11.5v14.04c0 28.035 22.809 50.843 50.844 50.843h10.54v41.359h-142.5v-86.808h10.54c28.035 0 50.844-22.808 50.844-50.843v-14.04c0-6.341-5.159-11.5-11.5-11.5h-14.04c-13.972 0-26.645 5.667-35.844 14.821v-65.871c15.806-2.866 28.897-14.602 33.361-30.102 9.573-2.586 16.639-11.341 16.639-21.721 0-12.407-10.094-22.5-22.5-22.5h-12.5v-91.116h19.487c13.869 0 25.153-11.284 25.153-25.153s-11.284-25.153-25.154-25.153c-19.282 0-34.963 16.002-34.486 35.307h-15c.514-19.318-15.214-35.307-34.487-35.307-13.869 0-25.153 11.284-25.153 25.153s11.284 25.153 25.153 25.153h19.487v91.116h-2.959c-3.477-15.916-12.706-30.404-25.976-40.469-21.449-16.287-33.731-41.059-33.695-67.965.026-16.844 5.059-33.164 14.553-47.194 2.321-3.431 1.422-8.093-2.009-10.415-3.43-2.321-8.093-1.422-10.415 2.008-11.175 16.515-17.099 35.734-17.129 55.579-.042 31.646 14.4 60.781 39.628 79.935 9.737 7.386 16.694 17.777 19.786 29.258-9.647 2.536-16.784 11.33-16.784 21.762 0 10.379 7.066 19.135 16.639 21.721 4.463 15.5 17.555 27.236 33.361 30.102v20.871c-9.199-9.154-21.872-14.821-35.844-14.821h-14.04c-6.341 0-11.5 5.159-11.5 11.5v14.041c0 28.035 22.809 50.843 50.844 50.843h10.54v43.438c-9.199-9.154-21.872-14.821-35.844-14.821h-14.04c-6.341 0-11.5 5.159-11.5 11.5v14.041c0 28.035 22.809 50.843 50.844 50.843h10.54v26.808h-142.5v-41.359h10.54c28.035 0 50.844-22.808 50.844-50.843v-14.04c0-6.341-5.159-11.5-11.5-11.5h-14.04c-13.972 0-26.645 5.667-35.844 14.821.526-28.326-22.569-51.643-50.844-51.651h-14.04c-6.341 0-11.5 5.159-11.5 11.5v14.04c0 28.035 22.809 50.843 50.844 50.843h10.54v78.189h-27.144c-4.143 0-7.5 3.358-7.5 7.5s3.357 7.5 7.5 7.5h384.287c4.143 0 7.5-3.358 7.5-7.5s-3.357-7.5-7.5-7.5h-27.144v-78.189h10.544c28.033 0 50.84-22.807 50.84-50.84v-14.043c.001-6.342-5.159-11.501-11.499-11.501zm-77.909 74.583c-2.93-2.929-7.678-2.929-10.607 0s-2.929 7.678 0 10.606l13.023 13.023c-19.733-.038-35.775-16.1-35.775-35.841v-10.54h10.54c19.742 0 35.805 16.042 35.842 35.775zm-94.988-334.997c5.599 0 10.153 4.555 10.153 10.153s-4.555 10.153-10.153 10.153h-19.487c-.305-11.013 8.344-20.306 19.487-20.306zm-156.143 312.244h10.54v10.54c0 19.741-16.042 35.804-35.775 35.841l13.023-13.023c2.929-2.929 2.929-7.678 0-10.606-2.93-2.929-7.678-2.93-10.607 0l-13.023 13.022c.037-19.732 16.1-35.774 35.842-35.774zm-50.844.396-13.267-11.746c-3.103-2.746-7.841-2.458-10.587.644s-2.458 7.841.644 10.587l10.874 9.628c-18.934-.939-34.048-16.636-34.048-35.798v-10.54h10.54c20.185-.026 36.654 16.961 35.844 37.225zm157.5 51.381-13.267-11.746c-3.104-2.747-7.842-2.458-10.587.644-2.746 3.101-2.458 7.841.644 10.587l10.874 9.628c-18.934-.939-34.048-16.636-34.048-35.798v-10.541h10.54c20.184-.026 36.656 16.962 35.844 37.226zm0-105-13.267-11.746c-3.104-2.746-7.842-2.458-10.587.644-2.746 3.101-2.458 7.841.644 10.587l10.874 9.628c-18.934-.939-34.048-16.636-34.048-35.798v-10.541h10.54c20.184-.026 36.656 16.962 35.844 37.226zm50.844 7.774h10.54v10.541c0 19.162-15.114 34.859-34.048 35.798l10.874-9.628c3.102-2.746 3.39-7.486.644-10.587-2.747-3.103-7.487-3.39-10.587-.644l-13.267 11.746c-.769-20.287 15.585-37.222 35.844-37.226zm-50.844-231.488h15v91.116h-15zm-34.487-15c-5.599 0-10.153-4.555-10.153-10.153s4.556-10.153 10.154-10.153c10.938 0 20.007 9.264 19.486 20.307h-19.487zm6.987 136.116c-4.136 0-7.5-3.364-7.5-7.5s3.364-7.5 7.5-7.5h70c4.136 0 7.5 3.364 7.5 7.5s-3.364 7.5-7.5 7.5zm35 30c-.015 0-.03.002-.045.002-10.49-.017-19.843-6.065-24.443-15.002h48.977c-4.6 8.937-13.953 14.985-24.443 15.002-.016 0-.031-.002-.046-.002zm211.384 99.534c0 19.161-15.115 34.857-34.048 35.794l10.874-9.628c3.102-2.746 3.39-7.486.644-10.587-2.746-3.102-7.487-3.39-10.587-.644l-13.267 11.746c-.772-20.288 15.588-37.221 35.844-37.226h10.54z"/></g></svg>