<svg id="Capa_1" enable-background="new 0 0 511.988 511.988" height="512" viewBox="0 0 511.988 511.988" width="512" xmlns="http://www.w3.org/2000/svg"><g><g><path d="m237.954 90.714h18.04v-18.04c0-23.938-19.405-43.343-43.343-43.343h-14.04c-2.209 0-4 1.791-4 4v14.04c0 23.937 19.405 43.343 43.343 43.343z" fill="#b3e59f"/><g><path d="m274.034 68.883h-18.04v-18.04c0-23.938 19.405-43.343 43.343-43.343h14.04c2.209 0 4 1.791 4 4v14.04c.001 23.938-19.405 43.343-43.343 43.343z" fill="#b3e59f"/></g><g fill="#edbb87"><path d="m447.24 381.729-53.449 11.583-8.08-37.284 53.449-11.584c10.296-2.231 20.451 4.306 22.682 14.602 2.231 10.297-4.307 20.452-14.602 22.683z"/><path d="m64.749 381.729 53.449 11.583 8.08-37.284-53.449-11.584c-10.296-2.231-20.451 4.306-22.682 14.602-2.231 10.297 4.306 20.452 14.602 22.683z"/></g><g><circle cx="255.994" cy="302.164" fill="#9dc6fb" r="184.067"/><path d="m322.837 130.618c52.35 32.454 87.224 90.423 87.224 156.546 0 101.657-82.409 184.067-184.067 184.067-23.581 0-46.122-4.441-66.843-12.521 28.133 17.441 61.309 27.521 96.843 27.521 101.657 0 184.067-82.409 184.067-184.067 0-78.077-48.615-144.793-117.224-171.546z" fill="#80b4fb"/><path d="m437.369 270.937c-14.838-86.776-90.368-152.84-181.375-152.84-13.28 0-26.219 1.438-38.701 4.11 3.672 14.784 7.419 32.147 10.792 52.634 5.516 33.504 7.829 61.913 23.794 67.055 15.549 5.008 28.186-17.164 49.751-12.978 18.093 3.512 20.629 21.338 36.772 34.609 21.897 18 63.092 22.893 98.967 7.41z" fill="#b3e59f"/><path d="m409.853 278.842c9.248-1.437 18.548-4.034 27.516-7.904-11.203-64.086-54.814-117.045-114.493-140.294 50.12 31.087 84.188 85.571 86.977 148.198z" fill="#95d6a4"/><path d="m148.358 241.051c-5.773-18.63-21.606-35.968-40.915-47.537-22.313 30.455-35.515 68.003-35.515 108.65 0 48.986 19.172 93.467 50.376 126.447 23.09-15.349 39.638-40.06 41.205-62.221 1.042-14.739-5.403-16.135-11.018-45.452-8.41-43.898 2.879-57.257-4.133-79.887z" fill="#b3e59f"/><path d="m193.558 475.35c19.498 7.031 40.515 10.881 62.436 10.881 54.374 0 103.224-23.59 136.919-61.078-12.302-18.243-30.861-35.19-41.354-44.764-14.545-13.271-49.217-44.905-70.6-34.658-16.719 8.012-8.551 33.597-23.105 66.749-15.147 34.504-43.677 51.645-64.296 62.87z" fill="#b3e59f"/><path d="m392.914 425.153c-6.116-9.07-13.779-17.818-21.228-25.5-37.333 49.396-102.944 78.645-168.354 70.187-3.388 1.996-6.671 3.822-9.773 5.51 66.908 25.533 151.67 4.961 199.355-50.197z" fill="#95d6a4"/></g><path d="m377.598 370.681c6.834-6.834 17.914-6.834 24.749 0l29.699 29.699c6.834 6.834 6.834 17.915 0 24.749-6.834 6.834-17.915 6.834-24.749 0l-29.698-29.698c-6.835-6.835-6.835-17.916-.001-24.75z" fill="#f1d0a4"/><path d="m434.935 406.921c-6.834 6.834-17.915 6.834-24.749 0l-29.699-29.698c-1.653-1.653-2.898-3.558-3.751-5.589-5.943 6.875-5.667 17.268.861 23.796l29.698 29.699c6.834 6.834 17.915 6.834 24.749 0 5.181-5.181 6.425-12.799 3.751-19.16-.277.322-.554.646-.86.952z" fill="#edbb87"/><path d="m342.243 384.823c6.834-6.834 17.915-6.834 24.749 0l50.912 50.912c6.834 6.834 6.834 17.915 0 24.749-6.834 6.834-17.915 6.834-24.749 0l-50.912-50.912c-6.834-6.834-6.834-17.915 0-24.749z" fill="#f1d0a4"/><path d="m418.869 442.276c-6.834 6.834-17.915 6.834-24.749 0l-50.912-50.912c-1.23-1.23-2.23-2.601-3.017-4.056-4.682 6.816-4.007 16.205 2.052 22.263l50.912 50.912c6.834 6.834 17.915 6.834 24.749 0 5.604-5.604 6.604-14.061 3.017-20.693-.601.874-1.276 1.71-2.052 2.486z" fill="#edbb87"/><path d="m317.494 409.572c6.834-6.834 17.915-6.834 24.749 0l50.912 50.912c6.834 6.834 6.834 17.914 0 24.749-6.834 6.834-17.915 6.834-24.749 0l-50.912-50.912c-6.834-6.835-6.834-17.915 0-24.749z" fill="#f1d0a4"/><path d="m393.154 467.025c-6.834 6.834-17.914 6.834-24.749 0l-50.912-50.912c-1.005-1.005-1.844-2.109-2.553-3.271-4.115 6.738-3.276 15.649 2.553 21.478l50.912 50.912c6.834 6.834 17.915 6.834 24.749 0 5.829-5.829 6.668-14.74 2.553-21.478-.709 1.162-1.548 2.266-2.553 3.271z" fill="#edbb87"/><path d="m303.352 444.927c6.834-6.834 17.915-6.834 24.749 0l29.698 29.698c6.834 6.834 6.834 17.915 0 24.749-6.834 6.834-17.915 6.834-24.749 0l-29.699-29.699c-6.833-6.833-6.833-17.914.001-24.748z" fill="#f1d0a4"/><path d="m360.796 481.087c-6.834 6.834-17.915 6.834-24.749 0l-29.699-29.699c-1.66-1.66-2.91-3.574-3.763-5.614-6.039 6.874-5.795 17.339.766 23.901l29.698 29.698c6.834 6.834 17.915 6.834 24.749 0 5.174-5.174 6.423-12.778 3.763-19.135-.249.287-.493.577-.765.849z" fill="#edbb87"/><path d="m134.39 370.681c-6.834-6.834-17.914-6.834-24.749 0l-29.699 29.699c-6.834 6.834-6.834 17.915 0 24.749 6.834 6.834 17.915 6.834 24.749 0l29.698-29.698c6.835-6.835 6.835-17.916.001-24.75z" fill="#f1d0a4"/><path d="m135.415 371.815c-.705 1.149-1.538 2.242-2.533 3.238l-29.698 29.698c-6.834 6.834-17.914 6.834-24.749 0-.364-.364-.699-.747-1.025-1.134-4.138 6.742-3.306 15.672 2.533 21.511 6.834 6.834 17.915 6.834 24.749 0l29.698-29.699c6.47-6.469 6.805-16.739 1.025-23.614z" fill="#edbb87"/><path d="m169.746 384.823c-6.834-6.834-17.915-6.834-24.749 0l-50.912 50.912c-6.834 6.834-6.834 17.915 0 24.749 6.834 6.834 17.915 6.834 24.749 0l50.912-50.912c6.834-6.834 6.834-17.915 0-24.749z" fill="#f1d0a4"/><path d="m169.746 389.738-50.912 50.912c-6.834 6.834-17.915 6.834-24.749 0-.767-.767-1.436-1.595-2.031-2.457-4.704 6.818-4.036 16.225 2.031 22.292 6.834 6.834 17.915 6.834 24.749 0l50.912-50.912c6.067-6.067 6.735-15.473 2.031-22.292-.596.862-1.264 1.689-2.031 2.457z" fill="#edbb87"/><path d="m194.494 409.572c-6.834-6.834-17.915-6.834-24.749 0l-50.912 50.912c-6.834 6.834-6.834 17.914 0 24.749 6.834 6.834 17.914 6.834 24.749 0l50.912-50.912c6.834-6.835 6.834-17.915 0-24.749z" fill="#f1d0a4"/><path d="m194.77 409.876c-.735 1.247-1.618 2.43-2.689 3.501l-50.912 50.912c-6.834 6.834-17.915 6.834-24.749 0-.098-.098-.18-.205-.275-.304-3.957 6.71-3.074 15.484 2.689 21.248 6.834 6.834 17.914 6.834 24.749 0l50.912-50.912c6.736-6.737 6.818-17.59.275-24.445z" fill="#edbb87"/><path d="m208.636 444.927c-6.834-6.834-17.914-6.834-24.749 0l-29.699 29.698c-6.834 6.834-6.834 17.915 0 24.749 6.834 6.834 17.915 6.834 24.749 0l29.699-29.699c6.835-6.833 6.835-17.914 0-24.748z" fill="#f1d0a4"/><path d="m208.636 449.125-29.698 29.698c-6.834 6.834-17.915 6.834-24.749 0-.659-.659-1.235-1.368-1.767-2.099-4.983 6.844-4.407 16.475 1.767 22.65 6.834 6.834 17.915 6.834 24.749 0l29.698-29.698c6.175-6.175 6.751-15.806 1.767-22.65-.531.731-1.107 1.44-1.767 2.099z" fill="#edbb87"/></g><path d="m444.45 336.538c2.061-11.316 3.114-22.833 3.114-34.378 0-103.114-81.902-187.445-184.07-191.4v-34.377h10.54c28.035 0 50.844-22.808 50.844-50.843v-14.04c0-6.341-5.159-11.5-11.5-11.5h-14.04c-23.704 0-43.669 16.307-49.272 38.291-9.3-10.111-22.628-16.461-37.416-16.461h-14.04c-6.341 0-11.5 5.159-11.5 11.5v14.04c0 28.035 22.809 50.843 50.844 50.843h10.54v12.549c-117.146 4.328-201.858 111.019-180.956 225.776-13.938.578-25.334 12.564-25.334 26.562 0 12.405 8.81 23.322 20.951 25.959l14.384 3.118c-11.969 9.327-13.784 27.37-2.899 38.255 2.821 2.82 6.153 4.819 9.7 6.007-1.88 3.554-2.88 7.535-2.88 11.671 0 6.678 2.6 12.956 7.321 17.677 4.667 4.667 10.854 7.257 17.445 7.317.062 6.32 2.493 12.621 7.304 17.432 7.855 7.857 19.762 9.466 29.334 4.44 3.278 9.964 13.35 17.012 23.699 17.012 6.401 0 12.805-2.438 17.678-7.311l18.466-18.465c17.239 4.986 35.141 7.518 53.287 7.518s36.048-2.532 53.287-7.518l18.466 18.465c9.748 9.747 25.607 9.747 35.354 0 2.774-2.774 4.81-6.088 6.022-9.702 9.551 5.018 21.488 3.406 29.334-4.441 4.811-4.811 7.242-11.112 7.304-17.432 6.591-.06 12.779-2.65 17.445-7.317 7.641-7.642 9.465-19.877 4.448-29.336 3.611-1.213 6.921-3.247 9.693-6.019 10.781-10.783 8.863-29.145-2.898-38.255l14.386-3.118c12.139-2.637 20.948-13.554 20.948-25.959.001-14.118-11.527-25.99-25.333-26.56zm-180.956-285.695c0-19.764 16.079-35.843 35.844-35.843h10.54v10.54c0 19.162-15.114 34.859-34.048 35.798l10.874-9.628c3.102-2.746 3.39-7.486.644-10.587-2.746-3.102-7.486-3.39-10.587-.644l-13.267 11.746zm-28.024 8.74c-2.93-2.929-7.678-2.929-10.607 0s-2.929 7.678 0 10.606l13.023 13.023c-19.733-.038-35.775-16.1-35.775-35.841v-10.541h10.54c19.742 0 35.805 16.042 35.842 35.775zm-169.134 314.818c-5.291-1.149-9.132-5.902-9.132-11.301 0-7.163 6.755-12.762 13.757-11.366 2.331 8.728 5.274 17.28 8.808 25.578zm18.91 45.423c-3.847-3.847-3.865-10.314.001-14.142 0 0 29.614-29.614 29.698-29.698 3.845-3.845 10.289-3.852 14.142 0 3.899 3.899 3.899 10.242.001 14.141l-29.7 29.7c-3.832 3.868-10.305 3.836-14.142-.001zm14.143 35.356c-3.899-3.899-3.899-10.243 0-14.142l50.912-50.912c3.822-3.868 10.307-3.871 14.141 0h.001c3.852 3.815 3.867 10.316-.001 14.142l-50.912 50.912c-3.831 3.868-10.305 3.836-14.141 0zm38.891 24.749c-3.899 3.898-10.243 3.9-14.143 0-3.899-3.899-3.899-10.244 0-14.143l50.91-50.911c3.899-3.898 10.243-3.899 14.143 0 3.899 3.899 3.899 10.243 0 14.142zm65.053-15.556-29.699 29.699c-3.898 3.898-10.241 3.899-14.142 0-3.846-3.845-3.865-10.311-.002-14.139l29.701-29.701c3.822-3.868 10.289-3.852 14.142 0 3.899 3.897 3.899 10.242 0 14.141zm10.606-24.749c-2.774-2.774-6.087-4.809-9.701-6.021 4.966-9.437 3.486-21.406-4.44-29.333-4.811-4.811-11.112-7.243-17.432-7.304-.06-6.59-2.65-12.778-7.318-17.445-4.722-4.722-10.999-7.322-17.677-7.322-4.135 0-8.116 1-11.67 2.88-1.188-3.547-3.187-6.88-6.007-9.7h-.001c-4.722-4.722-11-7.322-17.678-7.322s-12.956 2.601-17.678 7.323l-9.345 9.346c-10.207-22.658-15.569-47.536-15.569-72.563 0-36.406 11.079-70.272 30.039-98.409 15.65 10.854 27.312 25.264 31.728 39.521 2.82 9.093 2.239 16.431 1.436 26.586-.983 12.435-2.208 27.91 2.501 52.492 2.292 11.979 4.745 19.523 6.626 24.759 1.416 3.942 5.78 5.892 9.595 4.522 3.898-1.4 5.923-5.696 4.522-9.594-1.697-4.722-3.913-11.547-6.011-22.507-4.329-22.595-3.24-36.351-2.279-48.487.864-10.929 1.611-20.367-2.062-32.211-5.428-17.526-18.778-34.379-37.133-47.166 23.489-29.191 56.049-50.789 93.368-60.452 4.313 18.188 7.86 37.739 10.833 56.821 4.795 30.769 8.582 55.072 26.993 61.001 10.573 3.406 19.625-1.713 27.611-6.227 7.446-4.208 14.479-8.182 23.01-6.527 13.02 2.525 21.539 23.26 33.438 33.04 17.49 14.377 43.057 20.088 68.65 17.97 4.129-.342 7.197-3.966 6.855-8.094-.343-4.128-3.991-7.197-8.094-6.854-22.823 1.887-44.458-3.57-57.887-14.609-14.897-12.246-18.117-31.91-40.105-36.178-13.957-2.709-24.652 3.336-33.247 8.194-7.017 3.965-11.523 6.332-15.634 5.008-9.611-3.096-13.088-25.409-16.77-49.033-3.013-19.331-6.631-39.216-10.981-57.635 9.617-1.628 19.493-2.489 29.567-2.489 97.361 0 176.57 79.205 176.57 176.56 0 25.027-5.362 49.905-15.569 72.563l-9.345-9.345c-4.722-4.722-11-7.323-17.678-7.323s-12.956 2.601-17.678 7.322h-.001c-2.82 2.82-4.818 6.153-6.007 9.7-3.803-2.013-8.144-3.016-12.554-2.859-16.876-15.304-51.375-45.06-76.01-33.252-12.955 6.206-14.933 19.065-17.223 33.956-1.651 10.734-3.522 22.901-9.514 36.543-6.689 15.239-16.91 28.377-31.033 39.882-1.182-3.56-3.183-6.902-6.011-9.728zm84.109 0c-9.404 9.405-9.732 24.497-.99 34.302-13.38 3.187-27.142 4.804-41.064 4.804s-27.684-1.617-41.064-4.804c1.277-1.433 2.357-2.979 3.247-4.603 21.921-14.854 37.171-32.474 46.544-53.827 6.783-15.445 8.902-29.224 10.604-40.294 2.069-13.455 3.312-20.041 8.879-22.708 13.781-6.602 39.099 13.032 53.918 25.924-5.371 4.721-8.438 11.401-8.501 18.546-6.32.062-12.62 2.493-17.432 7.305-7.927 7.927-9.406 19.897-4.44 29.333-3.613 1.213-6.926 3.248-9.701 6.022zm54.447 54.447c-3.898 3.898-10.242 3.898-14.141 0l-29.699-29.699c-3.899-3.899-3.899-10.243 0-14.142h-.001c3.823-3.868 10.308-3.873 14.143 0l29.703 29.703c3.848 3.816 3.841 10.293-.005 14.138zm35.356-14.142c-3.898 3.9-10.243 3.898-14.142 0-8.171-8.17-42.301-42.303-50.911-50.912-3.899-3.899-3.899-10.243 0-14.142s10.244-3.897 14.142 0l50.911 50.912c3.899 3.899 3.899 10.243 0 14.142zm24.749-24.749c-3.849 3.849-10.324 3.855-14.142 0l-50.912-50.912c-3.865-3.827-3.865-10.314 0-14.141h.001c3.822-3.868 10.307-3.872 14.141 0 15.998 16.157 35.612 35.614 50.912 50.912 3.899 3.898 3.899 10.242 0 14.141zm14.141-35.355c-3.898 3.898-10.242 3.898-14.141 0l-29.7-29.7c-3.898-3.899-3.898-10.242.001-14.141h-.001c3.823-3.868 10.289-3.854 14.143 0 5.834 5.834 23.516 23.574 29.699 29.699 3.852 3.815 3.846 10.295-.001 14.142zm18.914-45.425-13.436 2.912c3.534-8.299 6.477-16.851 8.808-25.579 6.93-1.396 13.757 4.204 13.757 11.366 0 5.4-3.841 10.152-9.129 11.301z"/></g></svg>