<svg height="496pt" viewBox="0 0 496 496" width="496pt" xmlns="http://www.w3.org/2000/svg"><g fill="#f0bc5e"><path d="m399.839844 373.28125 5.519531 15.839844c-5.199219 10.078125-11.121094 18.878906-21.359375 18.878906-24.078125 0-24.078125-48-48.078125-48s-24 48-48 48c-10.242187 0-16.082031-8.800781-21.363281-18.800781l5.601562-15.917969c4.800782-13.601562 13.519532-24.882812 24.71875-32.800781 11.199219-7.921875 24.722656-12.480469 39.121094-12.480469 3.921875 0 7.839844.320312 11.601562.960938v.078124c23.839844 4.082032 44 20.800782 52.238282 44.242188zm0 0"/><path d="m309.441406 198.078125 8.636719 29.683594c-5.4375 10.636719-11.359375 20.238281-22.078125 20.238281-24.078125 0-24.078125-48-48.078125-48s-24 48-48 48c-10.722656 0-16.640625-9.601562-22-20.160156l8.636719-29.761719c4-13.597656 12.242187-25.117187 23.042968-33.277344 4.476563-3.359375 9.4375-6.160156 14.71875-8.242187 7.359376-2.957032 15.359376-4.558594 23.679688-4.558594 28.480469 0 53.441406 18.800781 61.441406 46.078125zm0 0"/><path d="m213.441406 342.078125 5.597656 19.28125c-4.71875 8.160156-10.238281 14.640625-19.039062 14.640625-24.078125 0-24.078125-48-48.078125-48s-24 48-48 48c-8.722656 0-14.320313-6.398438-19.042969-14.558594l5.679688-19.363281c4-13.597656 12.242187-25.117187 23.042968-33.277344 10.796876-8.082031 24.160157-12.800781 38.398438-12.800781 2 0 4 .078125 5.921875.320312 26 2.398438 48.078125 20.398438 55.519531 45.757813zm0 0"/><path d="m248 112v-96l120 48zm0 0"/></g><path d="m480 480h16v16h-16zm0 0"/><path d="m0 480h16v16h-16zm0 0"/><path d="m407.390625 370.625c-8.351563-23.746094-27.847656-41.648438-51.789063-48.023438l-1.632812-.378906-36.855469-126.398437c-8.191406-27.921875-32.699219-48.082031-61.121093-51.320313v-144.503906h-16v144.488281c-4.816407.535157-9.535157 1.574219-14.121094 3.070313-13.542969-10.351563-31.726563-14.117188-48.445313-9.621094-11.625-25.386719-36.992187-41.9375-65.425781-41.9375-39.703125 0-72 32.296875-72 72 0 2.878906.191406 5.761719.535156 8.640625-22.925781 3.597656-40.535156 23.4375-40.535156 47.359375 0 26.472656 21.527344 48 48 48h108.679688l-4.664063 16c-.007813 0-.007813 0-.015625 0-15.671875 0-30.609375 4.976562-43.214844 14.414062-12.519531 9.464844-21.480468 22.402344-25.898437 37.417969l-40.886719 140.167969h-18v16h440v-16h-18.328125zm-15.101563 5.285156 36.4375 104.089844h-185.453124l36.429687-104.054688c4.167969-11.792968 11.703125-21.800781 21.800781-28.9375 12.238282-8.648437 27.550782-12.289062 41.847656-10.574218l2.894532.496094c21.226562 3.621093 38.867187 18.574218 46.042968 38.980468zm-90.527343-175.597656 34.902343 119.710938c-.222656 0-.441406-.023438-.664062-.023438-15.710938 0-30.832031 4.824219-43.734375 13.945312-12.824219 9.0625-22.386719 21.742188-27.65625 36.6875l-18.808594 53.726563-24.679687-84.527344c-7.480469-25.488281-27.863282-44.230469-53-49.894531l26.117187-89.601562c3.449219-11.695313 10.425781-21.777344 20.167969-29.144532 3.960938-2.976562 8.289062-5.398437 12.898438-7.207031 6.566406-2.640625 13.535156-3.984375 20.695312-3.984375 24.6875 0 46.800781 16.585938 53.761719 40.3125zm-253.761719 55.6875c-17.648438 0-32-14.351562-32-32s14.351562-32 32-32c.304688-.007812.679688-.015625 1.609375.070312 17.039063.832032 30.390625 14.859376 30.390625 31.929688h16c0-23.601562-17.007812-43.273438-39.230469-47.167969-.457031-2.945312-.769531-5.894531-.769531-8.832031 0-30.871094 25.128906-56 56-56 24.238281 0 45.617188 15.472656 53.191406 38.496094l2.753906 8.359375 8.0625-3.527344c4.960938-2.175781 10.488282-3.328125 15.992188-3.328125 5.902344 0 11.566406 1.414062 16.761719 3.824219-1.328125.863281-2.707031 1.632812-3.976563 2.589843-12.519531 9.464844-21.480468 22.402344-25.898437 37.441407l-17.542969 60.144531zm50.230469 88.335938c3.449219-11.695313 10.425781-21.777344 20.160156-29.136719 9.792969-7.328125 21.425781-11.199219 33.609375-11.199219 1.664062 0 3.328125.054688 5.183594.289062 22.992187 2.117188 42.0625 17.832032 48.570312 40.023438l30.957032 106.015625-10.382813 29.671875h-167.664063zm0 0"/></svg>