<svg height="496pt" viewBox="0 -2 496 496" width="496pt" xmlns="http://www.w3.org/2000/svg"><path d="m405.359375 385.257812 34.640625 98.878907h-208l13.121094-37.441407 21.4375-61.359374c5.28125 10 11.121094 18.800781 21.363281 18.800781 24 0 24-48 48-48s24 48 48.078125 48c10.238281 0 16.160156-8.800781 21.359375-18.878907zm0 0" fill="#b4dd7f"/><path d="m84.878906 357.574219c4.722656 8.160156 10.320313 14.5625 19.042969 14.5625 24 0 24-48 48-48s24 48 48.078125 48c8.800781 0 14.320312-6.480469 19.039062-14.640625l26.082032 89.199218-13.121094 37.441407h-184zm0 0" fill="#b4dd7f"/><path d="m318.078125 223.894531 29.523437 101.203125c-3.761718-.640625-7.679687-.960937-11.601562-.960937-14.398438 0-27.921875 4.558593-39.121094 12.480469-11.199218 7.917968-19.917968 19.199218-24.71875 32.796874l-5.601562 15.921876-21.4375 61.359374-26.082032-89.199218-5.597656-19.28125c-7.441406-25.359375-29.519531-43.359375-55.519531-45.757813l9.4375-32.320312 10.5625-36.160157c5.359375 10.558594 11.277344 20.160157 22 20.160157 24 0 24-48 48-48s24 48 48.078125 48c10.71875 0 16.640625-9.601563 22.078125-20.242188zm0 0" fill="#8cc152"/><g fill="#e6e9ed"><path d="m399.839844 369.414062 5.519531 15.84375c-5.199219 10.078126-11.121094 18.878907-21.359375 18.878907-24.078125 0-24.078125-48-48.078125-48s-24 48-48 48c-10.242187 0-16.082031-8.800781-21.363281-18.800781l5.601562-15.921876c4.800782-13.597656 13.519532-24.878906 24.71875-32.796874 11.199219-7.921876 24.722656-12.480469 39.121094-12.480469 3.921875 0 7.839844.320312 11.601562.960937v.078125c23.839844 4.082031 44 20.800781 52.238282 44.238281zm0 0"/><path d="m103.921875 372.136719c-8.722656 0-14.320313-6.402344-19.042969-14.5625l5.679688-19.359375c4-13.597656 12.242187-25.117188 23.042968-33.277344 10.796876-8.082031 24.160157-12.800781 38.398438-12.800781 2 0 4 .078125 5.921875.320312 26 2.398438 48.078125 20.398438 55.519531 45.757813l5.597656 19.28125c-4.71875 8.160156-10.238281 14.640625-19.039062 14.640625-24.078125 0-24.078125-48-48.078125-48s-24 48-48 48zm0 0"/><path d="m309.441406 194.214844 8.636719 29.679687c-5.4375 10.640625-11.359375 20.242188-22.078125 20.242188-24.078125 0-24.078125-48-48.078125-48s-24 48-48 48c-10.722656 0-16.640625-9.601563-22-20.160157l8.636719-29.761718c4-13.597656 12.242187-25.117188 23.042968-33.277344 4.476563-3.363281 9.4375-6.160156 14.71875-8.242188 7.359376-2.960937 15.359376-4.558593 23.679688-4.558593 28.480469 0 53.441406 18.800781 61.441406 46.078125zm0 0"/><path d="m50 180.214844c-1.28125-5.117188-2-10.558594-2-16.078125 0-35.359375 28.640625-64 64-64 28.398438 0 52.398438 18.480469 60.800781 44 5.839844-2.5625 12.398438-4 19.199219-4 12.480469 0 23.839844 4.71875 32.320312 12.558593-5.28125 2.082032-10.242187 4.878907-14.71875 8.242188-10.800781 8.160156-19.042968 19.679688-23.042968 33.277344l-8.636719 29.761718-10.5625 36.160157h-119.359375c-22.078125 0-40-17.921875-40-40 0-22.082031 17.921875-40 40-40 .640625 0 1.359375 0 2 .078125zm0 0"/></g><path d="m360 60.136719-112 40v-88zm0 0" fill="#ff826e"/><path d="m480 476.136719h16v16h-16zm0 0"/><path d="m0 476.136719h16v16h-16zm0 0"/><path d="m407.40625 366.800781c-8.574219-24.496093-28.972656-42.480469-53.429688-48.480469l-36.855468-126.351562c-8.144532-27.929688-32.648438-48.097656-61.121094-51.328125v-34.863281l125.886719-44.960938-141.886719-60.816406v140.640625c-4.832031.550781-9.558594 1.558594-14.105469 3.046875-13.710937-10.398438-31.957031-14.128906-48.488281-9.617188-11.628906-25.382812-36.980469-41.933593-65.40625-41.933593-39.703125 0-72 32.296875-72 72 0 2.894531.199219 5.773437.542969 8.640625-22.925781 3.597656-40.542969 23.429687-40.542969 47.359375 0 26.472656 21.527344 48 48 48h108.664062l-4.664062 16c-31.792969 0-60.214844 21.320312-69.113281 51.832031l-40.886719 140.167969h-18v16h440v-16h-18.320312zm-151.40625-342.527343 82.113281 35.183593-82.113281 29.328125zm12.808594 378.902343c4.574218 4.96875 10.71875 8.960938 19.144531 8.960938 16.933594 0 24.824219-15.761719 31.152344-28.425781 6.078125-12.175782 10.261719-19.574219 16.839843-19.574219 6.582032 0 10.765626 7.398437 16.855469 19.574219 6.34375 12.664062 14.222657 28.425781 31.175781 28.425781 8.457032 0 14.609376-4.007813 19.199219-8.992188l25.542969 72.992188h-185.4375zm123.496094-31.097656 4.359374 12.464844c-4.695312 8.351562-8.289062 11.59375-12.6875 11.59375-6.585937 0-10.769531-7.402344-16.855468-19.578125-6.335938-12.664063-14.226563-28.421875-31.175782-28.421875-16.945312 0-24.832031 15.757812-31.160156 28.421875-6.082031 12.175781-10.257812 19.578125-16.832031 19.578125-4.386719 0-7.960937-3.226563-12.640625-11.550781l4.375-12.507813c8.367188-23.886719 31-39.941406 56.3125-39.941406s47.945312 16.054687 56.304688 39.941406zm-56.304688-55.941406c-32.105469 0-60.800781 20.359375-71.414062 50.664062l-18.800782 53.726563-24.664062-84.558594c-7.359375-25.234375-28.082032-44.136719-53.007813-49.945312l12.542969-43c4.65625 5.128906 10.832031 9.113281 19.296875 9.113281 16.933594 0 24.824219-15.761719 31.152344-28.425781 6.078125-12.175782 10.261719-19.574219 16.839843-19.574219 6.582032 0 10.765626 7.398437 16.855469 19.574219 6.34375 12.664062 14.222657 28.425781 31.175781 28.425781 8.488282 0 14.679688-4.015625 19.351563-9.152344l21.34375 73.183594c-.222656-.007813-.449219-.03125-.671875-.03125zm-34.238281-119.679688 7.742187 26.542969c-5.183594 9.585938-8.878906 13.136719-13.527344 13.136719-6.585937 0-10.769531-7.402344-16.855468-19.578125-6.335938-12.664063-14.226563-28.421875-31.175782-28.421875-16.945312 0-24.832031 15.757812-31.160156 28.421875-6.082031 12.175781-10.257812 19.578125-16.832031 19.578125-4.632813 0-8.3125-3.535157-13.472656-13.082031l7.757812-26.597657c6.929688-23.746093 29.035157-40.320312 53.761719-40.320312s46.832031 16.574219 53.761719 40.320312zm-253.761719 55.679688c-17.648438 0-32-14.351563-32-32 0-17.648438 14.351562-32 32-32s32 14.351562 32 32h16c0-23.464844-16.9375-43.015625-39.222656-47.160157-.464844-2.914062-.777344-5.863281-.777344-8.839843 0-30.871094 25.128906-56 56-56 24.230469 0 45.609375 15.488281 53.175781 38.527343l2.753907 8.359376 8.0625-3.527344c10.488281-4.59375 22.542968-4.214844 32.761718.425781-14.089844 9.199219-24.960937 23.214844-29.867187 40.046875l-17.558594 60.167969zm104 48c24.726562 0 46.832031 16.574219 53.761719 40.320312l4.628906 15.878907c-4.445313 6.753906-7.628906 7.800781-10.414063 7.800781-6.585937 0-10.769531-7.402344-16.855468-19.578125-6.335938-12.664063-14.226563-28.421875-31.175782-28.421875-16.945312 0-24.832031 15.757812-31.160156 28.421875-6.082031 12.175781-10.257812 19.578125-16.832031 19.578125-2.769531 0-5.9375-1.058594-10.359375-7.753907l4.644531-15.925781c6.929688-23.746093 29.035157-40.320312 53.761719-40.320312zm-63.671875 74.304687c4.128906 3.367188 9.183594 5.695313 15.625 5.695313 16.933594 0 24.824219-15.761719 31.152344-28.425781 6.078125-12.175782 10.261719-19.574219 16.839843-19.574219 6.582032 0 10.765626 7.398437 16.855469 19.574219 6.34375 12.664062 14.222657 28.425781 31.175781 28.425781 6.550782 0 11.65625-2.535157 15.671876-5.785157l21.046874 72.152344-10.375 29.632813h-167.65625zm0 0"/></svg>