<svg height="496pt" viewBox="0 0 496 496.00026" width="496pt" xmlns="http://www.w3.org/2000/svg"><path d="m488 200v288h-152v-288zm0 0" fill="#ccd1d9"/><path d="m160 248v240h-152v-240zm0 0" fill="#ccd1d9"/><path d="m320 152h-160v336h176v-336zm0 0" fill="#e6e9ed"/><path d="m304 152v176l-56-48-56 48v-176zm0 0" fill="#ff826e"/><g fill="#fcd770"><path d="m480 184.160156v15.839844h-144v-15.839844c0-14.320312 9.441406-26.878906 23.199219-30.800781l32.800781-9.359375v-12.398438c-9.519531-5.601562-16-15.761718-16-27.601562v-16c0-18.71875 16.082031-33.679688 35.121094-31.839844 16.640625 1.601563 28.878906 16.480469 28.878906 33.199219v14.640625c0 11.839844-6.480469 22-16 27.601562v12.398438l32.800781 9.359375c13.757813 3.921875 23.199219 16.480469 23.199219 30.800781zm0 0"/><path d="m320 136.160156v15.839844h-144v-15.839844c0-14.320312 9.441406-26.878906 23.199219-30.800781l32.800781-9.359375v-12.398438c-9.519531-5.601562-16-15.761718-16-27.601562v-16c0-18.71875 16.082031-33.679688 35.121094-31.839844 16.640625 1.601563 28.878906 16.480469 28.878906 33.199219v14.640625c0 11.839844-6.480469 22-16 27.601562v12.398438l32.800781 9.359375c13.757813 3.921875 23.199219 16.480469 23.199219 30.800781zm0 0"/><path d="m160 232.160156v15.839844h-144v-15.839844c0-14.320312 9.441406-26.878906 23.199219-30.800781l32.800781-9.359375v-12.398438c-9.519531-5.601562-16-15.761718-16-27.601562v-16c0-18.71875 16.082031-33.679688 35.121094-31.839844 16.640625 1.601563 28.878906 16.480469 28.878906 33.199219v14.640625c0 11.839844-6.480469 22-16 27.601562v12.398438l32.800781 9.359375c13.757813 3.921875 23.199219 16.480469 23.199219 30.800781zm0 0"/></g><path d="m488 192v-7.855469c0-17.761719-11.929688-33.578125-29.007812-38.472656l-26.992188-7.703125v-2.136719c9.96875-7.511719 16-19.328125 16-31.832031v-14.625c0-21.167969-15.855469-39.253906-36.097656-41.183594-11.261719-1.109375-22.484375 2.640625-30.804688 10.207032-8.320312 7.5625-13.097656 18.363281-13.097656 29.601562v16c0 12.503906 6.03125 24.320312 16 31.832031v2.136719l-26.992188 7.710938c-4.816406 1.375-9.160156 3.695312-13.007812 6.617187v-8.296875h-16v-7.855469c0-17.761719-11.929688-33.578125-29.007812-38.472656l-26.992188-7.703125v-2.136719c9.96875-7.511719 16-19.328125 16-31.832031v-14.625c0-21.167969-15.855469-39.253906-36.097656-41.183594-11.238282-1.109375-22.484375 2.640625-30.804688 10.207032-8.320312 7.5625-13.097656 18.363281-13.097656 29.601562v16c0 12.503906 6.03125 24.320312 16 31.832031v2.136719l-26.992188 7.710938c-17.078124 4.878906-29.007812 20.703124-29.007812 38.464843v7.855469h-16v56.289062c-3.847656-2.921874-8.191406-5.242187-13.007812-6.625l-26.992188-7.695312v-2.136719c9.96875-7.511719 16-19.328125 16-31.832031v-14.625c0-21.167969-15.855469-39.253906-36.097656-41.183594-11.246094-1.109375-22.484375 2.640625-30.804688 10.207032-8.320312 7.5625-13.097656 18.363281-13.097656 29.601562v16c0 12.503906 6.03125 24.320312 16 31.832031v2.136719l-26.992188 7.710938c-17.078124 4.878906-29.007812 20.703124-29.007812 38.464843v7.855469h-8v256h496v-304zm-126.59375-30.9375 38.59375-11.03125v-23.070312l-3.976562-2.3125c-7.527344-4.382813-12.023438-12.105469-12.023438-20.648438v-16c0-6.75 2.863281-13.222656 7.863281-17.769531 5.066407-4.597657 11.632813-6.742188 18.519531-6.125 12.121094 1.160156 21.617188 12.261719 21.617188 25.269531v14.625c0 8.542969-4.496094 16.265625-12.023438 20.648438l-3.976562 2.3125v23.070312l38.59375 11.023438c10.246094 2.9375 17.40625 12.433593 17.40625 23.089843v7.855469h-128v-7.855469c0-10.65625 7.160156-20.152343 17.40625-23.082031zm-161.40625-1.0625h96v150.609375l-48-41.152344-48 41.152344zm-16-23.855469c0-10.65625 7.160156-20.152343 17.40625-23.082031l38.59375-11.03125v-23.070312l-3.976562-2.3125c-7.527344-4.382813-12.023438-12.105469-12.023438-20.648438v-16c0-6.75 2.863281-13.222656 7.863281-17.769531 5.066407-4.597657 11.609375-6.734375 18.519531-6.125 12.121094 1.160156 21.617188 12.261719 21.617188 25.269531v14.625c0 8.542969-4.496094 16.265625-12.023438 20.648438l-3.976562 2.3125v23.070312l38.59375 11.023438c10.246094 2.9375 17.40625 12.433593 17.40625 23.089843v7.855469h-128zm-16 23.855469h16v185.390625l64-54.847656 64 54.847656v-185.390625h16v320h-160zm-144 72.144531c0-10.65625 7.160156-20.152343 17.40625-23.082031l38.59375-11.03125v-23.070312l-3.976562-2.3125c-7.527344-4.382813-12.023438-12.105469-12.023438-20.648438v-16c0-6.75 2.863281-13.222656 7.863281-17.769531 5.066407-4.597657 11.625-6.726563 18.519531-6.125 12.121094 1.160156 21.617188 12.261719 21.617188 25.269531v14.625c0 8.542969-4.496094 16.265625-12.023438 20.648438l-3.976562 2.3125v23.070312l38.59375 11.023438c10.246094 2.9375 17.40625 12.433593 17.40625 23.089843v7.855469h-128zm-8 23.855469h136v224h-136zm464 224h-136v-272h136zm0 0"/><path d="m240 365.335938v98.664062h16v-120h-20l-26.398438 35.199219 12.796876 9.601562zm0 0"/><path d="m434.238281 401.046875-42.238281 35.203125v27.75h64v-16h-48v-4.246094l36.488281-30.410156c7.320313-6.101562 11.511719-15.0625 11.511719-24.582031v-4.761719c0-17.648438-14.351562-32-32-32s-32 14.351562-32 32v8h16v-8c0-8.824219 7.175781-16 16-16s16 7.175781 16 16v4.761719c0 4.75-2.097656 9.238281-5.761719 12.285156zm0 0"/><path d="m104 384c0-17.648438-14.351562-32-32-32h-32v16h32c8.824219 0 16 7.175781 16 16s-7.175781 16-16 16h-16v16h16c8.824219 0 16 7.175781 16 16s-7.175781 16-16 16h-32v16h32c17.648438 0 32-14.351562 32-32 0-9.542969-4.199219-18.136719-10.855469-24 6.65625-5.863281 10.855469-14.457031 10.855469-24zm0 0"/></svg>