<?xml version="1.0"?>
<svg xmlns="http://www.w3.org/2000/svg" xmlns:xlink="http://www.w3.org/1999/xlink" xmlns:svgjs="http://svgjs.com/svgjs" version="1.1" width="512" height="512" x="0" y="0" viewBox="0 0 512 512" style="enable-background:new 0 0 512 512" xml:space="preserve"><g><g xmlns="http://www.w3.org/2000/svg"><path d="m207 323.321c0 27.019 21.981 49 49 49s49-21.981 49-49-21.981-49-49-49-49 21.981-49 49zm68 0c0 10.477-8.523 19-19 19s-19-8.523-19-19 8.523-19 19-19 19 8.523 19 19z" fill="#9be0a8" data-original="#000000" style=""/><path d="m256 402.321c-45.39 0-82.317 36.928-82.317 82.317v27.041h164.635v-27.041c-.001-45.389-36.928-82.317-82.318-82.317zm-52.235 79.358c1.54-27.477 24.38-49.358 52.235-49.358s50.695 21.882 52.235 49.358z" fill="#9be0a8" data-original="#000000" style=""/><path d="m82.317 98.321c27.019 0 49-21.981 49-49s-21.981-49-49-49-49 21.981-49 49 21.982 49 49 49zm0-68c10.477 0 19 8.523 19 19s-8.523 19-19 19-19-8.523-19-19 8.524-19 19-19z" fill="#9be0a8" data-original="#000000" style=""/><path d="m82.317 128.321c-45.39 0-82.317 36.928-82.317 82.317v27.041h164.635v-27.041c0-45.389-36.927-82.317-82.318-82.317zm-52.234 79.358c1.54-27.477 24.38-49.358 52.235-49.358s50.695 21.882 52.235 49.358z" fill="#9be0a8" data-original="#000000" style=""/><path d="m429.683 98.321c27.019 0 49-21.981 49-49s-21.981-49-49-49-49 21.981-49 49 21.981 49 49 49zm0-68c10.477 0 19 8.523 19 19s-8.523 19-19 19-19-8.523-19-19 8.523-19 19-19z" fill="#9be0a8" data-original="#000000" style=""/><path d="m429.682 128.321c-45.39 0-82.317 36.928-82.317 82.317v27.041h164.635v-27.041c0-45.389-36.928-82.317-82.318-82.317zm-52.235 79.358c1.54-27.477 24.38-49.358 52.235-49.358s50.695 21.882 52.235 49.358z" fill="#9be0a8" data-original="#000000" style=""/><path d="m98.333 317.282 29.801 11.426 10.739-28.012-69.178-26.522-41.097 61.645 24.961 16.641 16.587-24.88c12.718 33.154 34.23 62.565 62.552 84.95l18.602-23.537c-23.939-18.922-42.145-43.741-52.967-71.711z" fill="#9be0a8" data-original="#000000" style=""/><path d="m434.906 373.368c14.451-32.437 20.036-68.445 15.837-104.3l-29.796 3.49c3.549 30.307-1.127 60.73-13.253 88.16l-12.994-29.151-27.401 12.213 30.163 67.671 72.65-14.529-5.884-29.418z" fill="#9be0a8" data-original="#000000" style=""/><path d="m307.877 2.305-27.481 12.031 11.993 27.393c-34.775-7.188-71.145-4.953-105.275 6.807l9.773 28.363c28.85-9.94 59.569-11.87 88.955-5.884l-25.702 18.92 17.785 24.16 59.665-43.922z" fill="#9be0a8" data-original="#000000" style=""/></g></g></svg>
